<?xml version="1.0" encoding="utf-8"?>
<!-- Generator: Adobe Illustrator 25.0.0, SVG Export Plug-In . SVG Version: 6.00 Build 0)  -->
<svg version="1.1" id="Layer_1" xmlns="http://www.w3.org/2000/svg" xmlns:xlink="http://www.w3.org/1999/xlink" x="0px" y="0px"
	 viewBox="0 0 502.41 149.53" style="enable-background:new 0 0 502.41 149.53;" xml:space="preserve">
<style type="text/css">
	.st0{fill:#FFFFFF;}
</style>
<g id="Layer_2_1_">
	<g id="Layer_1-2">
		<path class="st0" d="M252.54,122.27h-13V102c-2.88-6.03-6.96-11.4-12-15.79c-5.04-4.4-10.04-6.6-15-6.61
			c-2.72,0.08-5.35,0.99-7.54,2.6c-2.75,2.17-4.35,5.49-4.32,9c0,3.06,1.53,5.31,4.59,6.74c3,1.05,6.14,1.64,9.31,1.76l-0.27,13
			c-5.25-0.1-10.43-1.25-15.24-3.37l-1.35-0.81c-0.85-0.48-1.66-1.02-2.43-1.62l-0.81-0.68c-1.01-0.83-1.92-1.78-2.7-2.83
			c-2.76-3.44-4.24-7.73-4.18-12.14c0.07-5.18,1.72-10.22,4.72-14.44c1.86-2.58,4.25-4.74,7-6.34c3.97-2.47,8.55-3.78,13.22-3.78
			c8.54,0,16.63,3.51,24.28,10.52l2.7,2.57V51.3h-58.36V38.35h81.76V51.3h-10.38V122.27z"/>
		<path class="st0" d="M336.46,122.27h-12.95c-0.23-1.73-0.83-3.39-1.76-4.86l-0.27-0.4c-3.42-5.04-9.18-9.31-17.27-12.82
			c-9.82-4.37-20.42-6.75-31.17-7L266.7,97V85.7l6.48-7.28c7.38-7.27,15.9-13.29,25.23-17.81c6.27-3.05,12.95-5.19,19.83-6.34
			c1.74-0.35,3.5-0.58,5.27-0.68V51.3h-63.28V38.35H380V51.3h-43.54v2.43c1.09,0.09,2.18,0.27,3.24,0.54
			c7.29,1.63,14.08,4.97,19.83,9.73c6.05,4.81,10.57,11.28,13,18.62c0.73,2.26,1.1,4.62,1.08,7c-0.06,2.18-0.46,4.33-1.19,6.38
			c-0.8,2.34-2.09,4.47-3.78,6.27c-1.75,1.88-3.89,3.36-6.28,4.32c-1.97,0.79-4.08,1.2-6.2,1.21c-2.75,0.04-5.48-0.52-8-1.62
			c-4-1.67-7.5-4.37-10.12-7.82l10.25-8c1.23,1.69,2.92,3,4.86,3.77c0.94,0.43,1.96,0.66,3,0.68c1.2-0.13,2.3-0.76,3-1.75
			c0.84-1.04,1.34-2.32,1.42-3.65c-0.02-1.1-0.2-2.19-0.54-3.24c-1.67-4.84-4.7-9.1-8.73-12.27c-4.13-3.44-9.04-5.81-14.3-6.9
			c-0.19,0.02-0.38-0.02-0.54-0.13V122.27z M323.51,100.68V66.55c-14.56,2.02-28.12,8.58-38.73,18.75c8.57,1.11,16.94,3.47,24.83,7
			C314.57,94.52,319.23,97.33,323.51,100.68L323.51,100.68z"/>
		<path class="st0" d="M461,122.27h-13V74.1c-0.04-3.57-0.52-7.13-1.42-10.59c-0.75-3.41-2.24-6.62-4.38-9.38
			c-0.75-0.72-1.59-1.33-2.5-1.82c-0.91-0.55-1.94-0.85-3-0.88c-2.61,0.19-5.31,1.94-8.1,5.27c-2.25,3.15-3.94,6.66-5,10.39
			c-0.36,1.46-0.54,2.95-0.54,4.45c0,3.51,1.03,5.26,3.1,5.26c0.51,0.01,1.02-0.09,1.49-0.27c2.67-1.68,4.93-3.94,6.61-6.61
			l10.79,7.15c-1.49,2.24-3.18,4.34-5.05,6.27c-2.23,2.19-4.84,3.95-7.7,5.2c-1.67,0.85-3.51,1.31-5.39,1.35c-1.08,0-2.07,0-3-0.14
			c-3.65-0.33-7.01-2.14-9.31-5c-3.62,3.48-8.49,5.37-13.51,5.25c-1.27-0.01-2.54-0.14-3.78-0.4c-3.61-0.93-6.85-2.93-9.31-5.72
			c-2.51-2.82-3.99-6.41-4.18-10.18c0-6.48,2.79-11.92,8.36-16.33l8.37,9.85l-0.54,0.54c-0.97,0.86-1.79,1.87-2.43,3
			c-0.44,0.69-0.72,1.47-0.81,2.29c0,1.05,0.45,2.04,1.23,2.74c0.67,0.7,1.6,1.12,2.57,1.15c1.28-0.08,2.52-0.45,3.64-1.08
			c1.24-0.58,2.38-1.36,3.37-2.3c0.93-1.06,1.58-2.33,1.89-3.71c0.3-1.58,0.43-3.18,0.41-4.79c-0.08-1.92-0.4-3.82-0.95-5.66
			c-1.62-5.4-7.2-8.1-16.73-8.1h-14.86V38.35h15.92c10.88,0,19.21,3.6,25,10.79c0.42-0.68,0.92-1.32,1.49-1.89
			c4.58-5.21,10.02-8.13,16.32-8.77c5.13,0,9.13,1.12,12,3.37V32H461v6.34h10.39V51.3H461V122.27z"/>
		<path class="st0" d="M492,122.27h-12.93V58.05c-1.33-4.23-4.12-6.48-8.36-6.75h-2V38.35h3.1c1.25-0.03,2.5,0.13,3.71,0.47
			c1.29,0.47,2.5,1.14,3.58,2V32H492v6.34h10.39V51.3H492V122.27z"/>
		<path class="st0" d="M41.15,102.68c1.33,0.15,2.67,0.15,4,0c7.81-0.98,14.69-5.63,18.5-12.52c-2.48-1.89-4.43-4.4-5.65-7.27
			C50,87.39,43.45,95,41.15,102.68z"/>
		<path class="st0" d="M74.57,90.67c0.81-0.01,1.61-0.1,2.4-0.25l0,0c0,0,0.11,0,0.16,0c7.78-1.53,12.85-9.09,11.31-16.87
			s-9.09-12.85-16.87-11.31s-12.85,9.09-11.31,16.87c1.34,6.8,7.35,11.67,14.28,11.58L74.57,90.67z"/>
		<path class="st0" d="M77.89,49.93c2.95-5.93,7.73-10.76,13.63-13.76c0.65-0.29,1.32-0.55,2-0.77c-1.38-8.56-7.08-10.62-10.43-11
			C78.23,23.72,72.25,25.71,68,30l0,0C72.93,34.83,76.47,42.17,77.89,49.93z"/>
		<path class="st0" d="M58.17,68c0.07,0,0.09,0.08,0.16,0.1l0.27,0.11c1.15-2.28,2.77-4.3,4.75-5.91c-4.89-5.95-13.53-12.3-21.65-14
			c0.1,0.81,0.25,1.62,0.46,2.41C44.26,58,50.66,64.86,58,68H58.17z"/>
		<path class="st0" d="M78.57,57.71c0,0,0,0.09,0,0.13s-0.07,0.11-0.08,0.18s-0.1,0.41-0.14,0.61c2.58,0.58,5,1.73,7.07,3.37
			c0.13-0.12,0.28-0.23,0.41-0.34C91,55,94,46.41,93.89,38.86c-0.31,0.13-0.62,0.2-0.92,0.34C86.1,42.48,80.41,49.92,78.57,57.71z"
			/>
		<path class="st0" d="M114.79,59.54c-1.21-0.58-2.48-1.02-3.79-1.33c-7.45-1.64-16.48,0.72-22.73,5.73
			c-0.03,0.04-0.06,0.08-0.08,0.12c0,0-0.11,0-0.15,0.07l-0.17,0.14c2.17,2.41,3.63,5.37,4.24,8.56
			C101.28,71.23,110.07,66.09,114.79,59.54z"/>
		<path class="st0" d="M66.32,60.32c2.54-1.37,5.37-2.09,8.25-2.11c0.15,0,0.29,0,0.44,0c0.06-0.28,0.13-0.56,0.19-0.85
			c0-9.38-3.63-19.07-9.38-24.86c-0.77,1.09-1.42,2.27-1.93,3.5C60.93,43.4,62,53.25,66.32,60.32z"/>
		<path class="st0" d="M111.75,54.93c1.65,0.39,3.25,0.99,4.76,1.78c2.32-4.24,1.73-9.47-1.46-13.1
			c-3.69-4.36-10.85-7.17-17.87-5.75c0.17,6.81-1.42,13.54-4.64,19.54C98.51,54.54,105.25,53.67,111.75,54.93z"/>
		<path class="st0" d="M34.06,75.65c6.67,4.72,15.21,5.93,22.94,3.26c-0.17-0.92-0.27-1.85-0.29-2.79c0.02-1.63,0.27-3.24,0.74-4.8
			l-0.16-0.07c-8.14-1.38-16.51-0.01-23.79,3.88C33.66,75.29,33.84,75.49,34.06,75.65z"/>
		<path class="st0" d="M113.13,88.12c-0.15-0.23-0.26-0.46-0.42-0.69c-4.66-6.64-12.16-10.71-20.27-11c-0.05,2.73-0.74,5.42-2,7.84
			C97.35,88.09,105.35,89.44,113.13,88.12z"/>
		<path class="st0" d="M107.6,92.17c-4.08-0.03-8.13-0.71-12-2c3.53,5.45,5.17,11.91,4.68,18.39c-0.1,1.51-0.37,3.01-0.8,4.46
			c5.46,1.55,10.5,0.28,13.85-3.72s4.83-10.9,1.58-18C112.51,91.86,110.06,92.16,107.6,92.17z"/>
		<path class="st0" d="M148.86,43.19c0.01-11.06-4.38-21.66-12.21-29.47c-7.87-7.74-18.44-12.11-29.48-12.21
			C97.72,0.61,87.38,0,76.28,0C64.4,0,53.38,0.56,43.37,1.51C32.31,1.49,21.7,5.89,13.89,13.72C3.57,24,2,37.64,1.69,43.19
			c-2.25,21.21-2.25,42.6,0,63.81c-0.02,11.06,4.37,21.66,12.2,29.47c7.87,7.73,18.44,12.11,29.48,12.21
			c10.77,0.57,22.11,0.89,34,0.85c10.35,0,20.31-0.34,29.82-0.85c10.49-0.56,21.86-4.05,30.78-13.57
			c9.21-9.84,10.67-22.22,10.91-28.11c1.2-10.96,1.77-21.98,1.73-33C150.57,63.71,149.98,53.42,148.86,43.19z M118.14,90.38
			c3.14,7.34,2.46,15.44-2.23,21.05c-2.97,3.59-7.41,5.63-12.07,5.57c-1.86-0.04-3.7-0.35-5.47-0.91
			c-2.85,6.38-8.57,11.5-15.17,12.91c-1.12,0.23-2.25,0.35-3.39,0.36c-5.62,0-10.36-3.17-13.52-8.88c-3.49,1.95-7.41,2.99-11.41,3
			c-3.69,0.04-7.33-0.91-10.52-2.76c-5.57-3.32-8.08-8.85-7.2-15.44c-6.51-1.88-12.24-6.6-14.6-12.7c-2.6-6.7-0.56-13.21,5.5-18.06
			c-5.14-6.11-7.18-14.63-4.54-21.36c2.29-5.87,7.6-8.93,14.66-8.7c0.46-7.16,4.29-14.15,10.25-17.69c5.59-3.31,11.66-2.89,17,1.05
			C70.23,23,77.08,20.17,83.57,21c7.15,0.92,11.91,5.84,13.26,13.53c7.6-1.37,16,1.18,20.78,6.89c4.2,5,4.77,11,1.78,17
			c5.54,3.89,9.44,10.18,9.69,16.72C129.35,82.28,125.36,87.75,118.14,90.38z"/>
		<path class="st0" d="M117.7,61.26v0.05c-4,5.6-10.58,10.28-18,13c6.35,1.86,11.89,5.8,15.73,11.19c0.44,0.61,0.79,1.26,1.17,1.89
			c8.16-2.78,9.25-8.72,9.12-12.09C125.53,70.37,122.59,64.78,117.7,61.26z"/>
		<path class="st0" d="M88.45,87.29c-2.24,2.78-5.26,4.82-8.67,5.87c3.16,8.14,9.32,15.19,16.46,18.62l0.14,0.06
			c0.3-1.14,0.48-2.3,0.54-3.48C97.38,99.47,94.34,92,88.45,87.29z"/>
		<path class="st0" d="M60.77,34.78c0.66-1.57,1.51-3.05,2.54-4.41c-3.8-2.98-9.06-3.26-13.16-0.71c-4.57,2.7-8.31,8.61-8.63,15.18
			C48,46,54.73,49.76,60.08,54.27C58.2,47.87,58.44,41.03,60.77,34.78z"/>
		<path class="st0" d="M79.26,99.85c-0.72,6.6-3.73,12.74-8.51,17.36c-0.56,0.49-1.14,0.94-1.75,1.36
			c4.08,7.68,10.15,7.78,13.48,7.1c4.94-1,10.15-5,12.74-10.69c-0.16-0.07-0.32-0.1-0.49-0.18
			C88.22,111.44,82.84,106.24,79.26,99.85z"/>
		<path class="st0" d="M51.15,83.43c-0.85,0.07-1.7,0.22-2.55,0.22c-5.93,0.03-11.71-1.82-16.52-5.28
			c-0.58-0.45-1.13-0.92-1.66-1.43c-6.85,5.29-6,11.27-4.73,14.43c1.78,4.63,6.36,8.91,12.14,10.63c0-0.02,0-0.04,0-0.06
			C39.82,95.19,44.78,88.42,51.15,83.43z"/>
		<path class="st0" d="M50.26,67.34c-5.37-3.88-9.34-9.39-11.33-15.7c-0.35-1.22-0.57-2.47-0.68-3.73c-5.69-0.23-9.83,2-11.6,6.48
			c-2.2,5.6-0.3,13,4.19,18.21C36.75,69.19,43.44,67.38,50.26,67.34z"/>
		<path class="st0" d="M75.86,93.89c-0.43,0-0.85,0.13-1.29,0.13c-2.41-0.01-4.79-0.49-7-1.44c-2.31,7.42-2.23,15.38,0.24,22.75
			c0.2-0.18,0.42-0.31,0.62-0.51C74.07,109.41,76.82,101.65,75.86,93.89z"/>
		<path class="st0" d="M63,96.83c-4.47,5.15-10.71,8.44-17.48,9.23c-0.76,0.08-1.53,0.13-2.3,0.13c-0.93-0.01-1.87-0.09-2.79-0.22
			c-0.8,4.75,1.46,9.5,5.66,11.87c4.89,2.92,12.58,3.23,18.75-0.38C62.4,110.87,61.77,103.75,63,96.83z"/>
	</g>
</g>
</svg>
