<svg xmlns="http://www.w3.org/2000/svg" viewBox="0 0 502.41 149.53"><g id="Layer_2" data-name="Layer 2"><g id="Layer_1-2" data-name="Layer 1"><path d="M252.54,122.27h-13V102a48.93,48.93,0,0,0-12-15.79q-7.56-6.6-15-6.61A13.4,13.4,0,0,0,205,82.2a11.36,11.36,0,0,0-4.32,9q0,4.59,4.59,6.74a31.72,31.72,0,0,0,9.31,1.76l-.27,13a39.64,39.64,0,0,1-15.24-3.37l-1.35-.81a19,19,0,0,1-2.43-1.62l-.81-.68a16.41,16.41,0,0,1-2.7-2.83,19,19,0,0,1-4.18-12.14,25.54,25.54,0,0,1,4.72-14.44,22.75,22.75,0,0,1,7-6.34,25,25,0,0,1,13.22-3.78q12.81,0,24.28,10.52l2.7,2.57V51.3H181.16V38.35h81.76V51.3H252.54Z"/><path d="M336.46,122.27H323.51a12,12,0,0,0-1.76-4.86l-.27-.4q-5.13-7.56-17.27-12.82a81.25,81.25,0,0,0-31.17-7L266.7,97V85.7l6.48-7.28a94.88,94.88,0,0,1,25.23-17.81,72.9,72.9,0,0,1,19.83-6.34,36.76,36.76,0,0,1,5.27-.68V51.3H260.23V38.35H380V51.3H336.46v2.43a20.29,20.29,0,0,1,3.24.54A47.26,47.26,0,0,1,359.53,64a39.77,39.77,0,0,1,13,18.62,22.07,22.07,0,0,1,1.08,7A20.49,20.49,0,0,1,372.42,96a17.28,17.28,0,0,1-3.78,6.27,17.48,17.48,0,0,1-6.28,4.32,16.87,16.87,0,0,1-6.2,1.21,19.33,19.33,0,0,1-8-1.62,24.57,24.57,0,0,1-10.12-7.82l10.25-8a11.09,11.09,0,0,0,4.86,3.77,7.62,7.62,0,0,0,3,.68,4.23,4.23,0,0,0,3-1.75,6.42,6.42,0,0,0,1.42-3.65,11.08,11.08,0,0,0-.54-3.24A26.65,26.65,0,0,0,351.3,73.9,32.76,32.76,0,0,0,337,67a.79.79,0,0,1-.54-.13Zm-12.95-21.59V66.55A69.83,69.83,0,0,0,284.78,85.3a88.43,88.43,0,0,1,24.83,7A67.1,67.1,0,0,1,323.51,100.68Z"/><path d="M461,122.27H448V74.1a44.08,44.08,0,0,0-1.42-10.59,23.55,23.55,0,0,0-4.38-9.38,11.64,11.64,0,0,0-2.5-1.82,6.17,6.17,0,0,0-3-.88q-3.91.28-8.1,5.27a33.63,33.63,0,0,0-5,10.39,18.2,18.2,0,0,0-.54,4.45q0,5.26,3.1,5.26a4,4,0,0,0,1.49-.27,21,21,0,0,0,6.61-6.61l10.79,7.15A43.84,43.84,0,0,1,440,83.34a25.43,25.43,0,0,1-7.7,5.2,12.53,12.53,0,0,1-5.39,1.35c-1.08,0-2.07,0-3-.14a13.52,13.52,0,0,1-9.31-5A18.85,18.85,0,0,1,401.09,90a19.31,19.31,0,0,1-3.78-.4A18.63,18.63,0,0,1,388,83.88a16.55,16.55,0,0,1-4.18-10.18q0-9.72,8.36-16.33l8.37,9.85-.54.54a11.77,11.77,0,0,0-2.43,3,5.36,5.36,0,0,0-.81,2.29A3.68,3.68,0,0,0,398,75.79a3.74,3.74,0,0,0,2.57,1.15,8.52,8.52,0,0,0,3.64-1.08,12.91,12.91,0,0,0,3.37-2.3,8.32,8.32,0,0,0,1.89-3.71,24,24,0,0,0,.41-4.79,23.19,23.19,0,0,0-.95-5.66q-2.43-8.1-16.73-8.1H377.34V38.35h15.92q16.32,0,25,10.79a10.63,10.63,0,0,1,1.49-1.89q6.87-7.81,16.32-8.77,7.7,0,12,3.37V32H461v6.34h10.39V51.3H461Z"/><path d="M492,122.27H479.07V58.05q-2-6.34-8.36-6.75h-2V38.35h3.1a12.64,12.64,0,0,1,3.71.47,12.78,12.78,0,0,1,3.58,2V32H492v6.34h10.39V51.3H492Z"/><path d="M41.15,102.68a17.62,17.62,0,0,0,4,0,24.66,24.66,0,0,0,18.5-12.52A18,18,0,0,1,58,82.89C50,87.39,43.45,95,41.15,102.68Z"/><path d="M74.57,90.67a13.66,13.66,0,0,0,2.4-.25s0,0,0,0,.11,0,.16,0a14.36,14.36,0,1,0-2.59.27Z"/><path d="M77.89,49.93A30.81,30.81,0,0,1,91.52,36.17a18.72,18.72,0,0,1,2-.77c-1.38-8.56-7.08-10.62-10.43-11C78.23,23.72,72.25,25.71,68,30L68,30C72.93,34.83,76.47,42.17,77.89,49.93Z"/><path d="M58.17,68c.07,0,.09.08.16.1l.27.11a18,18,0,0,1,4.75-5.91C58.46,56.35,49.82,50,41.7,48.3a17.32,17.32,0,0,0,.46,2.41C44.26,58,50.66,64.86,58,68Z"/><path d="M78.57,57.71s0,.09,0,.13-.07.11-.08.18-.1.41-.14.61A17.66,17.66,0,0,1,85.42,62c.13-.12.28-.23.41-.34C91,55,94,46.41,93.89,38.86c-.31.13-.62.2-.92.34C86.1,42.48,80.41,49.92,78.57,57.71Z"/><path d="M114.79,59.54A18.61,18.61,0,0,0,111,58.21c-7.45-1.64-16.48.72-22.73,5.73a1.25,1.25,0,0,0-.08.12s-.11,0-.15.07l-.17.14a17.77,17.77,0,0,1,4.24,8.56C101.28,71.23,110.07,66.09,114.79,59.54Z"/><path d="M66.32,60.32a17.58,17.58,0,0,1,8.25-2.11c.15,0,.29,0,.44,0,.06-.28.13-.56.19-.85,0-9.38-3.63-19.07-9.38-24.86A18.13,18.13,0,0,0,63.89,36C60.93,43.4,62,53.25,66.32,60.32Z"/><path d="M111.75,54.93a20.4,20.4,0,0,1,4.76,1.78,11.49,11.49,0,0,0-1.46-13.1c-3.69-4.36-10.85-7.17-17.87-5.75A39.23,39.23,0,0,1,92.54,57.4,30.86,30.86,0,0,1,111.75,54.93Z"/><path d="M34.06,75.65A25.37,25.37,0,0,0,57,78.91a17.13,17.13,0,0,1-.29-2.79,17.7,17.7,0,0,1,.74-4.8l-.16-.07a37.26,37.26,0,0,0-23.79,3.88C33.66,75.29,33.84,75.49,34.06,75.65Z"/><path d="M113.13,88.12c-.15-.23-.26-.46-.42-.69a25.88,25.88,0,0,0-20.27-11,17.72,17.72,0,0,1-2,7.84A34.85,34.85,0,0,0,113.13,88.12Z"/><path d="M107.6,92.17a39,39,0,0,1-12-2,29.74,29.74,0,0,1,4.68,18.39,20.47,20.47,0,0,1-.8,4.46c5.46,1.55,10.5.28,13.85-3.72s4.83-10.9,1.58-18A32.72,32.72,0,0,1,107.6,92.17Z"/><path d="M148.86,43.19a41.55,41.55,0,0,0-12.21-29.47A42.59,42.59,0,0,0,107.17,1.51C97.72.61,87.38,0,76.28,0,64.4,0,53.38.56,43.37,1.51A41.55,41.55,0,0,0,13.89,13.72C3.57,24,2,37.64,1.69,43.19a302,302,0,0,0,0,63.81,41.54,41.54,0,0,0,12.2,29.47,42.61,42.61,0,0,0,29.48,12.21c10.77.57,22.11.89,34,.85,10.35,0,20.31-.34,29.82-.85,10.49-.56,21.86-4.05,30.78-13.57,9.21-9.84,10.67-22.22,10.91-28.11a293.36,293.36,0,0,0,1.73-33A294.4,294.4,0,0,0,148.86,43.19ZM118.14,90.38c3.14,7.34,2.46,15.44-2.23,21.05A15.41,15.41,0,0,1,103.84,117a19.51,19.51,0,0,1-5.47-.91C95.52,122.47,89.8,127.59,83.2,129a17.46,17.46,0,0,1-3.39.36c-5.62,0-10.36-3.17-13.52-8.88a23.52,23.52,0,0,1-11.41,3,20.54,20.54,0,0,1-10.52-2.76c-5.57-3.32-8.08-8.85-7.2-15.44-6.51-1.88-12.24-6.6-14.6-12.7-2.6-6.7-.56-13.21,5.5-18.06-5.14-6.11-7.18-14.63-4.54-21.36,2.29-5.87,7.6-8.93,14.66-8.7.46-7.16,4.29-14.15,10.25-17.69,5.59-3.31,11.66-2.89,17,1.05C70.23,23,77.08,20.17,83.57,21c7.15.92,11.91,5.84,13.26,13.53,7.6-1.37,16,1.18,20.78,6.89,4.2,5,4.77,11,1.78,17,5.54,3.89,9.44,10.18,9.69,16.72C129.35,82.28,125.36,87.75,118.14,90.38Z"/><path d="M117.7,61.26l0,.05c-4,5.6-10.58,10.28-18,13a29.56,29.56,0,0,1,15.73,11.19c.44.61.79,1.26,1.17,1.89,8.16-2.78,9.25-8.72,9.12-12.09C125.53,70.37,122.59,64.78,117.7,61.26Z"/><path d="M88.45,87.29a17.84,17.84,0,0,1-8.67,5.87c3.16,8.14,9.32,15.19,16.46,18.62l.14.06a17.3,17.3,0,0,0,.54-3.48C97.38,99.47,94.34,92,88.45,87.29Z"/><path d="M60.77,34.78a20.61,20.61,0,0,1,2.54-4.41,11.49,11.49,0,0,0-13.16-.71c-4.57,2.7-8.31,8.61-8.63,15.18C48,46,54.73,49.76,60.08,54.27A30.85,30.85,0,0,1,60.77,34.78Z"/><path d="M79.26,99.85a28.46,28.46,0,0,1-8.51,17.36A18.54,18.54,0,0,1,69,118.57c4.08,7.68,10.15,7.78,13.48,7.1,4.94-1,10.15-5,12.74-10.69-.16-.07-.32-.1-.49-.18A37.3,37.3,0,0,1,79.26,99.85Z"/><path d="M51.15,83.43c-.85.07-1.7.22-2.55.22a28.07,28.07,0,0,1-16.52-5.28,20.51,20.51,0,0,1-1.66-1.43c-6.85,5.29-6,11.27-4.73,14.43C27.47,96,32.05,100.28,37.83,102a.13.13,0,0,0,0-.06C39.82,95.19,44.78,88.42,51.15,83.43Z"/><path d="M50.26,67.34a30.82,30.82,0,0,1-11.33-15.7,19.74,19.74,0,0,1-.68-3.73c-5.69-.23-9.83,2-11.6,6.48-2.2,5.6-.3,13,4.19,18.21A39.29,39.29,0,0,1,50.26,67.34Z"/><path d="M75.86,93.89c-.43,0-.85.13-1.29.13a17.92,17.92,0,0,1-7-1.44,37,37,0,0,0,.24,22.75c.2-.18.42-.31.62-.51A24.79,24.79,0,0,0,75.86,93.89Z"/><path d="M63,96.83a27.38,27.38,0,0,1-17.48,9.23,22.16,22.16,0,0,1-2.3.13,21.85,21.85,0,0,1-2.79-.22,11.45,11.45,0,0,0,5.66,11.87c4.89,2.92,12.58,3.23,18.75-.38A39.54,39.54,0,0,1,63,96.83Z"/></g></g></svg>