<svg width="151" height="150" viewBox="0 0 151 150" fill="none" xmlns="http://www.w3.org/2000/svg">
<path d="M41.1475 102.68C42.4775 102.83 43.8175 102.83 45.1475 102.68C52.9575 101.7 59.8375 97.05 63.6475 90.16C61.1675 88.27 59.2175 85.76 57.9975 82.89C49.9975 87.39 43.4475 95 41.1475 102.68Z" fill="white"/>
<path d="M74.5675 90.67C75.3775 90.66 76.1775 90.57 76.9675 90.42C76.9675 90.42 77.0775 90.42 77.1275 90.42C84.9075 88.89 89.9775 81.33 88.4375 73.55C86.8975 65.77 79.3475 60.7 71.5675 62.24C63.7875 63.78 58.7175 71.33 60.2575 79.11C61.5975 85.91 67.6075 90.78 74.5375 90.69L74.5675 90.67Z" fill="white"/>
<path d="M77.8876 49.93C80.8376 44 85.6176 39.17 91.5176 36.17C92.1676 35.88 92.8376 35.62 93.5176 35.4C92.1376 26.84 86.4376 24.78 83.0876 24.4C78.2276 23.72 72.2476 25.71 67.9976 30C72.9276 34.83 76.4676 42.17 77.8876 49.93Z" fill="white"/>
<path d="M58.1675 68C58.2375 68 58.2575 68.08 58.3275 68.1L58.5975 68.21C59.7475 65.93 61.3675 63.91 63.3475 62.3C58.4575 56.35 49.8175 50 41.6975 48.3C41.7975 49.11 41.9475 49.92 42.1575 50.71C44.2575 58 50.6575 64.86 57.9975 68H58.1675Z" fill="white"/>
<path d="M78.5675 57.71C78.5675 57.71 78.5675 57.8 78.5675 57.84C78.5675 57.88 78.4975 57.95 78.4875 58.02C78.4775 58.09 78.3875 58.43 78.3475 58.63C80.9275 59.21 83.3475 60.36 85.4175 62C85.5475 61.88 85.6975 61.77 85.8275 61.66C90.9975 55 93.9975 46.41 93.8875 38.86C93.5775 38.99 93.2675 39.06 92.9675 39.2C86.0975 42.48 80.4075 49.92 78.5675 57.71Z" fill="white"/>
<path d="M114.788 59.54C113.578 58.96 112.308 58.52 110.998 58.21C103.548 56.57 94.5175 58.93 88.2675 63.94C88.2375 63.98 88.2076 64.02 88.1876 64.06C88.1876 64.06 88.0776 64.06 88.0376 64.13L87.8676 64.27C90.0376 66.68 91.4976 69.64 92.1076 72.83C101.278 71.23 110.068 66.09 114.788 59.54Z" fill="white"/>
<path d="M66.3175 60.32C68.8575 58.95 71.6875 58.23 74.5675 58.21C74.7175 58.21 74.8575 58.21 75.0075 58.21C75.0675 57.93 75.1375 57.65 75.1975 57.36C75.1975 47.98 71.5675 38.29 65.8175 32.5C65.0475 33.59 64.3975 34.77 63.8875 36C60.9275 43.4 61.9975 53.25 66.3175 60.32Z" fill="white"/>
<path d="M111.747 54.93C113.397 55.32 114.997 55.92 116.507 56.71C118.827 52.47 118.237 47.24 115.047 43.61C111.357 39.25 104.197 36.44 97.1775 37.86C97.3475 44.67 95.7575 51.4 92.5375 57.4C98.5075 54.54 105.247 53.67 111.747 54.93Z" fill="white"/>
<path d="M34.0576 75.65C40.7276 80.37 49.2676 81.58 56.9976 78.91C56.8276 77.99 56.7276 77.06 56.7076 76.12C56.7276 74.49 56.9776 72.88 57.4476 71.32L57.2876 71.25C49.1476 69.87 40.7776 71.24 33.4976 75.13C33.6576 75.29 33.8376 75.49 34.0576 75.65Z" fill="white"/>
<path d="M113.127 88.12C112.977 87.89 112.867 87.66 112.707 87.43C108.047 80.79 100.547 76.72 92.4375 76.43C92.3875 79.16 91.6975 81.85 90.4375 84.27C97.3475 88.09 105.347 89.44 113.127 88.12Z" fill="white"/>
<path d="M107.598 92.17C103.518 92.14 99.4675 91.46 95.5975 90.17C99.1275 95.62 100.768 102.08 100.278 108.56C100.178 110.07 99.9075 111.57 99.4775 113.02C104.938 114.57 109.978 113.3 113.328 109.3C116.678 105.3 118.158 98.4 114.908 91.3C112.508 91.86 110.058 92.16 107.598 92.17Z" fill="white"/>
<path d="M148.857 43.19C148.867 32.13 144.477 21.53 136.647 13.72C128.777 5.98 118.207 1.61 107.167 1.51C97.7175 0.61 87.3775 0 76.2775 0C64.3975 0 53.3775 0.56 43.3675 1.51C32.3075 1.49 21.6975 5.89 13.8875 13.72C3.5675 24 1.9975 37.64 1.6875 43.19C-0.5625 64.4 -0.5625 85.79 1.6875 107C1.6675 118.06 6.0575 128.66 13.8875 136.47C21.7575 144.2 32.3275 148.58 43.3675 148.68C54.1375 149.25 65.4775 149.57 77.3675 149.53C87.7175 149.53 97.6775 149.19 107.188 148.68C117.677 148.12 129.047 144.63 137.967 135.11C147.177 125.27 148.638 112.89 148.878 107C150.078 96.04 150.647 85.02 150.607 74C150.567 63.71 149.977 53.42 148.857 43.19ZM118.137 90.38C121.277 97.72 120.598 105.82 115.908 111.43C112.938 115.02 108.497 117.06 103.837 117C101.977 116.96 100.138 116.65 98.3675 116.09C95.5175 122.47 89.7975 127.59 83.1975 129C82.0775 129.23 80.9475 129.35 79.8075 129.36C74.1875 129.36 69.4475 126.19 66.2875 120.48C62.7975 122.43 58.8775 123.47 54.8775 123.48C51.1875 123.52 47.5475 122.57 44.3575 120.72C38.7875 117.4 36.2775 111.87 37.1575 105.28C30.6475 103.4 24.9175 98.68 22.5575 92.58C19.9575 85.88 21.9975 79.37 28.0575 74.52C22.9175 68.41 20.8775 59.89 23.5175 53.16C25.8075 47.29 31.1175 44.23 38.1775 44.46C38.6375 37.3 42.4675 30.31 48.4275 26.77C54.0175 23.46 60.0875 23.88 65.4275 27.82C70.2275 23 77.0775 20.17 83.5675 21C90.7175 21.92 95.4775 26.84 96.8275 34.53C104.427 33.16 112.827 35.71 117.607 41.42C121.807 46.42 122.377 52.42 119.387 58.42C124.927 62.31 128.827 68.6 129.077 75.14C129.347 82.28 125.357 87.75 118.137 90.38Z" fill="white"/>
<path d="M117.698 61.26V61.31C113.698 66.91 107.118 71.59 99.6975 74.31C106.048 76.17 111.588 80.11 115.428 85.5C115.868 86.11 116.218 86.76 116.598 87.39C124.758 84.61 125.848 78.67 125.718 75.3C125.528 70.37 122.588 64.78 117.698 61.26Z" fill="white"/>
<path d="M88.4475 87.29C86.2075 90.07 83.1875 92.11 79.7775 93.16C82.9375 101.3 89.0975 108.35 96.2375 111.78L96.3775 111.84C96.6775 110.7 96.8575 109.54 96.9175 108.36C97.3775 99.47 94.3375 92 88.4475 87.29Z" fill="white"/>
<path d="M60.7675 34.78C61.4275 33.21 62.2775 31.73 63.3075 30.37C59.5075 27.39 54.2475 27.11 50.1475 29.66C45.5775 32.36 41.8375 38.27 41.5175 44.84C47.9975 46 54.7275 49.76 60.0775 54.27C58.1975 47.87 58.4375 41.03 60.7675 34.78Z" fill="white"/>
<path d="M79.2576 99.85C78.5376 106.45 75.5276 112.59 70.7476 117.21C70.1876 117.7 69.6076 118.15 68.9976 118.57C73.0776 126.25 79.1476 126.35 82.4776 125.67C87.4176 124.67 92.6276 120.67 95.2176 114.98C95.0576 114.91 94.8976 114.88 94.7276 114.8C88.2176 111.44 82.8376 106.24 79.2576 99.85Z" fill="white"/>
<path d="M51.1475 83.43C50.2975 83.5 49.4475 83.65 48.5975 83.65C42.6675 83.68 36.8875 81.83 32.0775 78.37C31.4975 77.92 30.9475 77.45 30.4175 76.94C23.5675 82.23 24.4175 88.21 25.6875 91.37C27.4675 96 32.0475 100.28 37.8275 102C37.8275 101.98 37.8275 101.96 37.8275 101.94C39.8175 95.19 44.7775 88.42 51.1475 83.43Z" fill="white"/>
<path d="M50.2575 67.34C44.8875 63.46 40.9175 57.95 38.9275 51.64C38.5775 50.42 38.3575 49.17 38.2475 47.91C32.5575 47.68 28.4175 49.91 26.6475 54.39C24.4475 59.99 26.3475 67.39 30.8375 72.6C36.7475 69.19 43.4375 67.38 50.2575 67.34Z" fill="white"/>
<path d="M75.8575 93.89C75.4275 93.89 75.0075 94.02 74.5675 94.02C72.1575 94.01 69.7775 93.53 67.5675 92.58C65.2575 100 65.3375 107.96 67.8075 115.33C68.0075 115.15 68.2275 115.02 68.4275 114.82C74.0675 109.41 76.8175 101.65 75.8575 93.89Z" fill="white"/>
<path d="M62.9975 96.83C58.5275 101.98 52.2875 105.27 45.5175 106.06C44.7575 106.14 43.9875 106.19 43.2175 106.19C42.2875 106.18 41.3475 106.1 40.4275 105.97C39.6275 110.72 41.8875 115.47 46.0875 117.84C50.9775 120.76 58.6675 121.07 64.8375 117.46C62.3975 110.87 61.7675 103.75 62.9975 96.83Z" fill="white"/>
</svg>
