<?xml version="1.0" standalone="no"?>
<!DOCTYPE svg PUBLIC "-//W3C//DTD SVG 20010904//EN"
 "http://www.w3.org/TR/2001/REC-SVG-20010904/DTD/svg10.dtd">
<svg version="1.0" xmlns="http://www.w3.org/2000/svg"
 width="260.000000pt" height="260.000000pt" viewBox="0 0 260.000000 260.000000"
 preserveAspectRatio="xMidYMid meet">
<metadata>
Created by potrace 1.14, written by Peter Selinger 2001-2017
</metadata>
<g transform="translate(0.000000,260.000000) scale(0.100000,-0.100000)"
fill="#000000" stroke="none">
<path d="M1058 2525 c-1 -1 -55 -6 -118 -9 -274 -15 -361 -31 -466 -85 -81
-41 -108 -60 -171 -122 -120 -116 -190 -282 -207 -489 -3 -36 -9 -101 -13
-145 -9 -97 -10 -619 -1 -730 4 -44 9 -120 13 -170 13 -168 53 -285 138 -401
102 -139 286 -247 457 -268 191 -25 1034 -24 1205 0 216 30 401 147 507 319
70 114 93 218 116 515 9 130 9 591 -1 720 -5 58 -10 128 -12 155 -18 231 -70
352 -209 490 -129 129 -271 188 -476 201 -50 3 -107 7 -128 10 -41 6 -628 14
-634 9z m460 -369 c57 -29 93 -72 117 -141 l18 -50 59 2 c135 3 260 -66 313
-172 23 -46 26 -156 6 -194 -12 -22 -9 -27 36 -75 61 -63 77 -89 96 -153 37
-125 -19 -257 -130 -304 -21 -9 -31 -19 -28 -29 47 -159 17 -289 -82 -365 -58
-44 -111 -59 -189 -52 l-61 6 -21 -37 c-64 -114 -198 -187 -310 -170 -55 9
-132 52 -152 86 -30 52 -32 53 -91 30 -80 -31 -196 -29 -269 5 -97 45 -152
123 -153 219 -1 46 -2 48 -40 63 -22 9 -56 28 -76 43 -150 111 -180 278 -73
402 l39 44 -29 46 c-59 93 -76 222 -39 304 35 76 80 111 172 130 l64 13 7 42
c23 138 142 261 263 274 43 5 132 -17 154 -38 11 -11 21 -8 61 21 117 84 236
102 338 50z"/>
<path d="M1277 2105 c-27 -12 -59 -33 -73 -46 -24 -22 -24 -23 -5 -43 40 -45
92 -138 117 -213 14 -43 27 -79 28 -80 2 -2 17 19 35 47 38 59 116 129 177
159 38 19 44 26 38 44 -14 50 -41 93 -77 121 -35 28 -46 31 -115 33 -63 1 -86
-3 -125 -22z"/>
<path d="M965 2070 c-54 -8 -96 -32 -135 -76 -41 -47 -80 -129 -80 -170 0 -28
4 -33 33 -38 48 -9 164 -67 221 -110 l49 -38 -8 39 c-22 103 -10 216 31 300
14 29 23 57 20 62 -12 18 -91 37 -131 31z"/>
<path d="M1120 1954 c-48 -105 -45 -241 9 -367 l20 -46 36 15 c19 8 54 16 76
17 l41 2 -6 69 c-11 124 -71 274 -136 340 -18 18 -19 18 -40 -30z"/>
<path d="M1675 1912 c-17 -6 -20 -17 -23 -67 -3 -56 -35 -188 -51 -210 -5 -5
-11 -18 -14 -27 -5 -15 0 -14 51 4 79 28 209 32 283 8 l57 -17 10 36 c20 67
-2 146 -56 196 -60 57 -197 97 -257 77z"/>
<path d="M1550 1868 c-80 -50 -174 -179 -195 -268 -5 -23 0 -28 55 -54 71 -34
67 -36 126 77 35 69 59 149 67 225 5 49 -2 51 -53 20z"/>
<path d="M621 1740 c-134 -32 -172 -208 -78 -357 l27 -42 51 24 c57 26 149 51
219 60 l46 6 -57 58 c-61 61 -105 137 -124 211 -12 49 -24 55 -84 40z"/>
<path d="M754 1713 c23 -96 112 -210 210 -268 l59 -34 28 38 c15 22 32 42 38
46 19 11 12 25 -33 70 -78 76 -197 149 -280 169 -27 7 -28 6 -22 -21z"/>
<path d="M1690 1571 c-70 -19 -169 -68 -177 -87 -2 -6 7 -28 21 -48 13 -20 28
-50 31 -67 7 -29 9 -31 43 -24 99 18 243 99 309 174 29 34 29 39 -4 52 -49 19
-154 18 -223 0z"/>
<path d="M1961 1491 c-46 -53 -114 -104 -195 -145 l-68 -34 35 -11 c61 -21
154 -87 197 -143 23 -29 45 -54 50 -56 18 -7 105 66 125 106 43 86 11 205 -77
289 l-34 33 -33 -39z"/>
<path d="M1214 1506 c-62 -20 -110 -61 -139 -119 -78 -158 34 -338 211 -338
140 0 247 121 231 261 -7 59 -25 96 -68 138 -61 60 -157 84 -235 58z"/>
<path d="M830 1369 c-56 -6 -120 -24 -192 -54 -31 -12 -20 -25 46 -56 91 -43
153 -51 259 -35 54 8 54 8 60 89 l5 57 -36 1 c-21 0 -46 2 -57 3 -11 2 -49 -1
-85 -5z"/>
<path d="M1571 1229 c-6 -29 -16 -58 -21 -64 -32 -38 267 -106 350 -80 20 6
19 8 -11 46 -57 72 -170 134 -265 146 l-42 5 -11 -53z"/>
<path d="M535 1245 c-81 -81 -78 -193 6 -289 22 -24 62 -56 91 -70 l51 -25 40
79 c26 53 62 104 108 152 38 40 69 73 69 73 -124 0 -207 21 -283 72 -27 18
-51 33 -53 33 -1 0 -15 -11 -29 -25z"/>
<path d="M946 1128 c-92 -69 -159 -156 -197 -255 l-10 -26 68 6 c109 11 206
67 279 163 l27 35 -30 32 c-17 18 -40 46 -50 64 l-19 32 -68 -51z"/>
<path d="M1477 1070 c-15 -15 -45 -36 -67 -47 l-41 -19 34 -63 c19 -36 55 -88
80 -116 48 -54 154 -132 165 -121 12 13 4 162 -12 216 -23 76 -94 182 -120
179 -6 -1 -23 -14 -39 -29z"/>
<path d="M1654 1011 c13 -25 30 -67 36 -91 15 -54 21 -173 10 -211 -8 -27 -7
-28 36 -35 91 -13 177 35 219 122 22 47 25 151 6 206 -11 34 -15 37 -39 31
-46 -11 -195 -5 -244 10 l-47 15 23 -47z"/>
<path d="M1159 962 c-6 -32 -12 -87 -12 -123 0 -70 21 -189 33 -189 16 0 68
69 94 124 28 59 46 155 36 195 -4 19 -13 25 -35 26 -17 1 -47 7 -67 13 l-37
10 -12 -56z"/>
<path d="M1090 941 c0 -5 -27 -30 -60 -54 -70 -53 -171 -89 -246 -89 l-54 0 0
-47 c1 -102 103 -181 237 -183 86 -1 170 31 158 59 -21 56 -34 148 -32 230 2
51 1 93 0 93 -2 0 -3 -4 -3 -9z"/>
<path d="M1356 856 c-10 -64 -67 -173 -117 -223 l-42 -43 26 -39 c30 -45 96
-81 149 -81 47 0 113 24 155 56 37 28 93 100 93 118 0 6 -18 21 -39 33 -55 32
-148 119 -186 176 l-33 48 -6 -45z"/>
</g>
</svg>
